version 1
nodes
  0 "nuke"  -1
  1 "base"  -1
end
skeleton
time 0
  0 0.000001 0.000000 0.000001 0.000000 -0.000000 0.000000
  1 0.000000 0.000000 0.000000 1.570796 -0.000000 -1.570796
time 1
  0 0.000001 0.000000 0.000001 0.000000 -0.000000 0.000000
  1 0.000000 0.000000 0.000000 0.000000 0.000000 -1.570796
time 2
  0 0.000001 0.000000 0.000001 0.000000 -0.000000 0.000000
  1 0.000000 0.000000 0.000000 -1.570796 0.000000 -1.570796
time 3
  0 0.000001 0.000000 0.000001 0.000000 -0.000000 0.000000
  1 0.000000 0.000000 0.000000 -0.000000 -3.141593 1.570796
time 4
  0 0.000001 0.000000 0.000001 0.000000 -0.000000 0.000000
  1 0.000000 0.000000 0.000000 1.570796 -0.000000 -1.570796
end
